solid OpenSCAD_Model
  facet normal 1 -0 0
    outer loop
      vertex 3.8 0 274.32
      vertex 3.8 0.849999 0
      vertex 3.8 0.849999 274.32
    endloop
  endfacet
  facet normal 1 0 0
    outer loop
      vertex 3.8 0.849999 0
      vertex 3.8 0 274.32
      vertex 3.8 0 0
    endloop
  endfacet
  facet normal -1 0 0
    outer loop
      vertex 7.2 0 0
      vertex 7.2 0.849999 274.32
      vertex 7.2 0.849999 0
    endloop
  endfacet
  facet normal -1 -0 0
    outer loop
      vertex 7.2 0.849999 274.32
      vertex 7.2 0 0
      vertex 7.2 0 274.32
    endloop
  endfacet
  facet normal 1 -0 0
    outer loop
      vertex 2.6 0.849999 274.32
      vertex 2.6 3.65 0
      vertex 2.6 3.65 274.32
    endloop
  endfacet
  facet normal 1 0 0
    outer loop
      vertex 2.6 3.65 0
      vertex 2.6 0.849999 274.32
      vertex 2.6 0.849999 0
    endloop
  endfacet
  facet normal -1 0 0
    outer loop
      vertex 8.4 0.849999 0
      vertex 8.4 3.65 274.32
      vertex 8.4 3.65 0
    endloop
  endfacet
  facet normal -1 -0 0
    outer loop
      vertex 8.4 3.65 274.32
      vertex 8.4 0.849999 0
      vertex 8.4 0.849999 274.32
    endloop
  endfacet
  facet normal 0 -1 0
    outer loop
      vertex 2.6 3.65 0
      vertex 8.4 3.65 274.32
      vertex 2.6 3.65 274.32
    endloop
  endfacet
  facet normal 0 -1 -0
    outer loop
      vertex 8.4 3.65 274.32
      vertex 2.6 3.65 0
      vertex 8.4 3.65 0
    endloop
  endfacet
  facet normal 0 1 -0
    outer loop
      vertex 3.8 0.849999 0
      vertex 2.6 0.849999 274.32
      vertex 3.8 0.849999 274.32
    endloop
  endfacet
  facet normal 0 1 0
    outer loop
      vertex 2.6 0.849999 274.32
      vertex 3.8 0.849999 0
      vertex 2.6 0.849999 0
    endloop
  endfacet
  facet normal 0 1 -0
    outer loop
      vertex 8.4 0.849999 0
      vertex 7.2 0.849999 274.32
      vertex 8.4 0.849999 274.32
    endloop
  endfacet
  facet normal 0 1 0
    outer loop
      vertex 7.2 0.849999 274.32
      vertex 8.4 0.849999 0
      vertex 7.2 0.849999 0
    endloop
  endfacet
  facet normal 0 0 -1
    outer loop
      vertex 10.75 18.575 266.32
      vertex 8.55 23.825 266.32
      vertex 10.75 29.075 266.32
    endloop
  endfacet
  facet normal 0 0 -1
    outer loop
      vertex 10.75 18.575 266.32
      vertex 8.40072 22.8825 266.32
      vertex 8.55 23.825 266.32
    endloop
  endfacet
  facet normal 0 0 -1
    outer loop
      vertex 10.75 18.575 266.32
      vertex 7.9675 22.0323 266.32
      vertex 8.40072 22.8825 266.32
    endloop
  endfacet
  facet normal 0 0 -1
    outer loop
      vertex 10.75 18.575 266.32
      vertex 7.29274 21.3575 266.32
      vertex 7.9675 22.0323 266.32
    endloop
  endfacet
  facet normal 0 0 -1
    outer loop
      vertex 10.75 18.575 266.32
      vertex 6.4425 20.9243 266.32
      vertex 7.29274 21.3575 266.32
    endloop
  endfacet
  facet normal 0 0 -1
    outer loop
      vertex 10.75 18.575 266.32
      vertex 5.5 20.775 266.32
      vertex 6.4425 20.9243 266.32
    endloop
  endfacet
  facet normal 0 0 -1
    outer loop
      vertex 0 18.575 266.32
      vertex 5.5 20.775 266.32
      vertex 10.75 18.575 266.32
    endloop
  endfacet
  facet normal -0 0 -1
    outer loop
      vertex 2.59928 22.8825 266.32
      vertex 0 18.575 266.32
      vertex 2.45 23.825 266.32
    endloop
  endfacet
  facet normal -0 0 -1
    outer loop
      vertex 3.0325 22.0323 266.32
      vertex 0 18.575 266.32
      vertex 2.59928 22.8825 266.32
    endloop
  endfacet
  facet normal -0 0 -1
    outer loop
      vertex 3.70726 21.3575 266.32
      vertex 0 18.575 266.32
      vertex 3.0325 22.0323 266.32
    endloop
  endfacet
  facet normal -0 0 -1
    outer loop
      vertex 4.5575 20.9243 266.32
      vertex 0 18.575 266.32
      vertex 3.70726 21.3575 266.32
    endloop
  endfacet
  facet normal -0 0 -1
    outer loop
      vertex 5.5 20.775 266.32
      vertex 0 18.575 266.32
      vertex 4.5575 20.9243 266.32
    endloop
  endfacet
  facet normal 0 0 -1
    outer loop
      vertex 8.40072 24.7675 266.32
      vertex 10.75 29.075 266.32
      vertex 8.55 23.825 266.32
    endloop
  endfacet
  facet normal 0 0 -1
    outer loop
      vertex 7.9675 25.6177 266.32
      vertex 10.75 29.075 266.32
      vertex 8.40072 24.7675 266.32
    endloop
  endfacet
  facet normal 0 0 -1
    outer loop
      vertex 7.29274 26.2925 266.32
      vertex 10.75 29.075 266.32
      vertex 7.9675 25.6177 266.32
    endloop
  endfacet
  facet normal 0 0 -1
    outer loop
      vertex 6.4425 26.7257 266.32
      vertex 10.75 29.075 266.32
      vertex 7.29274 26.2925 266.32
    endloop
  endfacet
  facet normal 0 0 -1
    outer loop
      vertex 5.5 26.875 266.32
      vertex 10.75 29.075 266.32
      vertex 6.4425 26.7257 266.32
    endloop
  endfacet
  facet normal 0 0 -1
    outer loop
      vertex 0 29.075 266.32
      vertex 5.5 26.875 266.32
      vertex 4.5575 26.7257 266.32
    endloop
  endfacet
  facet normal 0 0 -1
    outer loop
      vertex 0 29.075 266.32
      vertex 2.45 23.825 266.32
      vertex 0 18.575 266.32
    endloop
  endfacet
  facet normal 0 0 -1
    outer loop
      vertex 5.5 26.875 266.32
      vertex 0 29.075 266.32
      vertex 10.75 29.075 266.32
    endloop
  endfacet
  facet normal 0 0 -1
    outer loop
      vertex 3.70726 26.2925 266.32
      vertex 0 29.075 266.32
      vertex 4.5575 26.7257 266.32
    endloop
  endfacet
  facet normal 0 0 -1
    outer loop
      vertex 3.0325 25.6177 266.32
      vertex 0 29.075 266.32
      vertex 3.70726 26.2925 266.32
    endloop
  endfacet
  facet normal 0 0 -1
    outer loop
      vertex 2.59928 24.7675 266.32
      vertex 0 29.075 266.32
      vertex 3.0325 25.6177 266.32
    endloop
  endfacet
  facet normal 0 0 -1
    outer loop
      vertex 2.45 23.825 266.32
      vertex 0 29.075 266.32
      vertex 2.59928 24.7675 266.32
    endloop
  endfacet
  facet normal -1 0 0
    outer loop
      vertex 10.75 18.575 261.02
      vertex 10.75 29.075 266.32
      vertex 10.75 29.075 261.02
    endloop
  endfacet
  facet normal -1 -0 0
    outer loop
      vertex 10.75 29.075 266.32
      vertex 10.75 18.575 261.02
      vertex 10.75 18.575 266.32
    endloop
  endfacet
  facet normal 0 -1 0
    outer loop
      vertex 0 29.075 261.02
      vertex 10.75 29.075 266.32
      vertex 0 29.075 266.32
    endloop
  endfacet
  facet normal 0 -1 -0
    outer loop
      vertex 10.75 29.075 266.32
      vertex 0 29.075 261.02
      vertex 10.75 29.075 261.02
    endloop
  endfacet
  facet normal 0 0 1
    outer loop
      vertex 10.75 29.075 261.02
      vertex 8.55 23.825 261.02
      vertex 10.75 18.575 261.02
    endloop
  endfacet
  facet normal 0 0 1
    outer loop
      vertex 10.75 29.075 261.02
      vertex 8.40072 24.7675 261.02
      vertex 8.55 23.825 261.02
    endloop
  endfacet
  facet normal 0 0 1
    outer loop
      vertex 10.75 29.075 261.02
      vertex 7.9675 25.6177 261.02
      vertex 8.40072 24.7675 261.02
    endloop
  endfacet
  facet normal 0 0 1
    outer loop
      vertex 10.75 29.075 261.02
      vertex 7.29274 26.2925 261.02
      vertex 7.9675 25.6177 261.02
    endloop
  endfacet
  facet normal 0 0 1
    outer loop
      vertex 10.75 29.075 261.02
      vertex 6.4425 26.7257 261.02
      vertex 7.29274 26.2925 261.02
    endloop
  endfacet
  facet normal 0 0 1
    outer loop
      vertex 10.75 29.075 261.02
      vertex 5.5 26.875 261.02
      vertex 6.4425 26.7257 261.02
    endloop
  endfacet
  facet normal -0 0 1
    outer loop
      vertex 0 29.075 261.02
      vertex 5.5 26.875 261.02
      vertex 10.75 29.075 261.02
    endloop
  endfacet
  facet normal 0 0 1
    outer loop
      vertex 2.59928 24.7675 261.02
      vertex 0 29.075 261.02
      vertex 2.45 23.825 261.02
    endloop
  endfacet
  facet normal 0 0 1
    outer loop
      vertex 3.0325 25.6177 261.02
      vertex 0 29.075 261.02
      vertex 2.59928 24.7675 261.02
    endloop
  endfacet
  facet normal 0 0 1
    outer loop
      vertex 3.70726 26.2925 261.02
      vertex 0 29.075 261.02
      vertex 3.0325 25.6177 261.02
    endloop
  endfacet
  facet normal 0 0 1
    outer loop
      vertex 4.5575 26.7257 261.02
      vertex 0 29.075 261.02
      vertex 3.70726 26.2925 261.02
    endloop
  endfacet
  facet normal 0 0 1
    outer loop
      vertex 5.5 26.875 261.02
      vertex 0 29.075 261.02
      vertex 4.5575 26.7257 261.02
    endloop
  endfacet
  facet normal -0 0 1
    outer loop
      vertex 8.40072 22.8825 261.02
      vertex 10.75 18.575 261.02
      vertex 8.55 23.825 261.02
    endloop
  endfacet
  facet normal -0 0 1
    outer loop
      vertex 7.9675 22.0323 261.02
      vertex 10.75 18.575 261.02
      vertex 8.40072 22.8825 261.02
    endloop
  endfacet
  facet normal -0 0 1
    outer loop
      vertex 7.29274 21.3575 261.02
      vertex 10.75 18.575 261.02
      vertex 7.9675 22.0323 261.02
    endloop
  endfacet
  facet normal -0 0 1
    outer loop
      vertex 6.4425 20.9243 261.02
      vertex 10.75 18.575 261.02
      vertex 7.29274 21.3575 261.02
    endloop
  endfacet
  facet normal -0 0 1
    outer loop
      vertex 5.5 20.775 261.02
      vertex 10.75 18.575 261.02
      vertex 6.4425 20.9243 261.02
    endloop
  endfacet
  facet normal 0 0 1
    outer loop
      vertex 0 18.575 261.02
      vertex 5.5 20.775 261.02
      vertex 4.5575 20.9243 261.02
    endloop
  endfacet
  facet normal 0 0 1
    outer loop
      vertex 0 18.575 261.02
      vertex 2.45 23.825 261.02
      vertex 0 29.075 261.02
    endloop
  endfacet
  facet normal 0 0 1
    outer loop
      vertex 5.5 20.775 261.02
      vertex 0 18.575 261.02
      vertex 10.75 18.575 261.02
    endloop
  endfacet
  facet normal 0 0 1
    outer loop
      vertex 3.70726 21.3575 261.02
      vertex 0 18.575 261.02
      vertex 4.5575 20.9243 261.02
    endloop
  endfacet
  facet normal 0 0 1
    outer loop
      vertex 3.0325 22.0323 261.02
      vertex 0 18.575 261.02
      vertex 3.70726 21.3575 261.02
    endloop
  endfacet
  facet normal 0 0 1
    outer loop
      vertex 2.59928 22.8825 261.02
      vertex 0 18.575 261.02
      vertex 3.0325 22.0323 261.02
    endloop
  endfacet
  facet normal 0 0 1
    outer loop
      vertex 2.45 23.825 261.02
      vertex 0 18.575 261.02
      vertex 2.59928 22.8825 261.02
    endloop
  endfacet
  facet normal 0 1 -0
    outer loop
      vertex 10.75 18.575 261.02
      vertex 0 18.575 266.32
      vertex 10.75 18.575 266.32
    endloop
  endfacet
  facet normal 0 1 0
    outer loop
      vertex 0 18.575 266.32
      vertex 10.75 18.575 261.02
      vertex 0 18.575 261.02
    endloop
  endfacet
  facet normal -0.987688 -0.156435 0
    outer loop
      vertex 8.55 23.825 245.97
      vertex 8.40072 24.7675 261.02
      vertex 8.40072 24.7675 245.97
    endloop
  endfacet
  facet normal -0.987688 -0.156435 0
    outer loop
      vertex 8.40072 24.7675 261.02
      vertex 8.55 23.825 245.97
      vertex 8.55 23.825 261.02
    endloop
  endfacet
  facet normal -0.987688 -0.156435 0
    outer loop
      vertex 8.55 23.825 266.32
      vertex 8.40072 24.7675 274.32
      vertex 8.40072 24.7675 266.32
    endloop
  endfacet
  facet normal -0.987688 -0.156435 0
    outer loop
      vertex 8.40072 24.7675 274.32
      vertex 8.55 23.825 266.32
      vertex 8.55 23.825 274.32
    endloop
  endfacet
  facet normal 0.987688 -0.156435 0
    outer loop
      vertex 2.45 23.825 261.02
      vertex 2.59928 24.7675 245.97
      vertex 2.59928 24.7675 261.02
    endloop
  endfacet
  facet normal 0.987688 -0.156435 0
    outer loop
      vertex 2.59928 24.7675 245.97
      vertex 2.45 23.825 261.02
      vertex 2.45 23.825 245.97
    endloop
  endfacet
  facet normal 0.987688 -0.156435 0
    outer loop
      vertex 2.45 23.825 274.32
      vertex 2.59928 24.7675 266.32
      vertex 2.59928 24.7675 274.32
    endloop
  endfacet
  facet normal 0.987688 -0.156435 0
    outer loop
      vertex 2.59928 24.7675 266.32
      vertex 2.45 23.825 274.32
      vertex 2.45 23.825 266.32
    endloop
  endfacet
  facet normal -0.156436 -0.987688 0
    outer loop
      vertex 5.5 26.875 245.97
      vertex 6.4425 26.7257 261.02
      vertex 5.5 26.875 261.02
    endloop
  endfacet
  facet normal -0.156436 -0.987688 -0
    outer loop
      vertex 6.4425 26.7257 261.02
      vertex 5.5 26.875 245.97
      vertex 6.4425 26.7257 245.97
    endloop
  endfacet
  facet normal -0.156436 -0.987688 0
    outer loop
      vertex 5.5 26.875 266.32
      vertex 6.4425 26.7257 274.32
      vertex 5.5 26.875 274.32
    endloop
  endfacet
  facet normal -0.156436 -0.987688 -0
    outer loop
      vertex 6.4425 26.7257 274.32
      vertex 5.5 26.875 266.32
      vertex 6.4425 26.7257 266.32
    endloop
  endfacet
  facet normal 0.156434 0.987688 -0
    outer loop
      vertex 5.5 20.775 266.32
      vertex 4.5575 20.9243 274.32
      vertex 5.5 20.775 274.32
    endloop
  endfacet
  facet normal 0.156434 0.987688 0
    outer loop
      vertex 4.5575 20.9243 274.32
      vertex 5.5 20.775 266.32
      vertex 4.5575 20.9243 266.32
    endloop
  endfacet
  facet normal 0.156434 0.987688 -0
    outer loop
      vertex 5.5 20.775 245.97
      vertex 4.5575 20.9243 261.02
      vertex 5.5 20.775 261.02
    endloop
  endfacet
  facet normal 0.156434 0.987688 0
    outer loop
      vertex 4.5575 20.9243 261.02
      vertex 5.5 20.775 245.97
      vertex 4.5575 20.9243 245.97
    endloop
  endfacet
  facet normal 0 0 1
    outer loop
      vertex 8.40072 24.7675 245.97
      vertex 8.40072 22.8825 245.97
      vertex 8.55 23.825 245.97
    endloop
  endfacet
  facet normal 0 0 1
    outer loop
      vertex 7.9675 25.6177 245.97
      vertex 8.40072 22.8825 245.97
      vertex 8.40072 24.7675 245.97
    endloop
  endfacet
  facet normal 0 0 1
    outer loop
      vertex 7.9675 25.6177 245.97
      vertex 7.9675 22.0323 245.97
      vertex 8.40072 22.8825 245.97
    endloop
  endfacet
  facet normal 0 0 1
    outer loop
      vertex 7.29274 26.2925 245.97
      vertex 7.9675 22.0323 245.97
      vertex 7.9675 25.6177 245.97
    endloop
  endfacet
  facet normal 0 0 1
    outer loop
      vertex 7.29274 26.2925 245.97
      vertex 7.29274 21.3575 245.97
      vertex 7.9675 22.0323 245.97
    endloop
  endfacet
  facet normal 0 0 1
    outer loop
      vertex 6.4425 26.7257 245.97
      vertex 7.29274 21.3575 245.97
      vertex 7.29274 26.2925 245.97
    endloop
  endfacet
  facet normal 0 0 1
    outer loop
      vertex 6.4425 26.7257 245.97
      vertex 6.4425 20.9243 245.97
      vertex 7.29274 21.3575 245.97
    endloop
  endfacet
  facet normal 0 0 1
    outer loop
      vertex 5.5 26.875 245.97
      vertex 6.4425 20.9243 245.97
      vertex 6.4425 26.7257 245.97
    endloop
  endfacet
  facet normal 0 0 1
    outer loop
      vertex 5.5 26.875 245.97
      vertex 5.5 20.775 245.97
      vertex 6.4425 20.9243 245.97
    endloop
  endfacet
  facet normal -0 0 1
    outer loop
      vertex 4.5575 26.7257 245.97
      vertex 5.5 20.775 245.97
      vertex 5.5 26.875 245.97
    endloop
  endfacet
  facet normal 0 0 1
    outer loop
      vertex 4.5575 26.7257 245.97
      vertex 4.5575 20.9243 245.97
      vertex 5.5 20.775 245.97
    endloop
  endfacet
  facet normal -0 0 1
    outer loop
      vertex 3.70726 26.2925 245.97
      vertex 4.5575 20.9243 245.97
      vertex 4.5575 26.7257 245.97
    endloop
  endfacet
  facet normal 0 0 1
    outer loop
      vertex 3.70726 26.2925 245.97
      vertex 3.70726 21.3575 245.97
      vertex 4.5575 20.9243 245.97
    endloop
  endfacet
  facet normal -0 0 1
    outer loop
      vertex 3.0325 25.6177 245.97
      vertex 3.70726 21.3575 245.97
      vertex 3.70726 26.2925 245.97
    endloop
  endfacet
  facet normal 0 0 1
    outer loop
      vertex 3.0325 25.6177 245.97
      vertex 3.0325 22.0323 245.97
      vertex 3.70726 21.3575 245.97
    endloop
  endfacet
  facet normal -0 0 1
    outer loop
      vertex 2.59928 24.7675 245.97
      vertex 3.0325 22.0323 245.97
      vertex 3.0325 25.6177 245.97
    endloop
  endfacet
  facet normal 0 0 1
    outer loop
      vertex 2.59928 24.7675 245.97
      vertex 2.59928 22.8825 245.97
      vertex 3.0325 22.0323 245.97
    endloop
  endfacet
  facet normal 0 -0 1
    outer loop
      vertex 2.59928 22.8825 245.97
      vertex 2.59928 24.7675 245.97
      vertex 2.45 23.825 245.97
    endloop
  endfacet
  facet normal -0.707107 -0.707107 0
    outer loop
      vertex 7.9675 25.6177 245.97
      vertex 7.29274 26.2925 261.02
      vertex 7.29274 26.2925 245.97
    endloop
  endfacet
  facet normal -0.707107 -0.707107 0
    outer loop
      vertex 7.29274 26.2925 261.02
      vertex 7.9675 25.6177 245.97
      vertex 7.9675 25.6177 261.02
    endloop
  endfacet
  facet normal -0.707107 -0.707107 0
    outer loop
      vertex 7.9675 25.6177 266.32
      vertex 7.29274 26.2925 274.32
      vertex 7.29274 26.2925 266.32
    endloop
  endfacet
  facet normal -0.707107 -0.707107 0
    outer loop
      vertex 7.29274 26.2925 274.32
      vertex 7.9675 25.6177 266.32
      vertex 7.9675 25.6177 274.32
    endloop
  endfacet
  facet normal -0.891007 -0.45399 0
    outer loop
      vertex 8.40072 24.7675 245.97
      vertex 7.9675 25.6177 261.02
      vertex 7.9675 25.6177 245.97
    endloop
  endfacet
  facet normal -0.891007 -0.45399 0
    outer loop
      vertex 7.9675 25.6177 261.02
      vertex 8.40072 24.7675 245.97
      vertex 8.40072 24.7675 261.02
    endloop
  endfacet
  facet normal -0.891007 -0.45399 0
    outer loop
      vertex 8.40072 24.7675 266.32
      vertex 7.9675 25.6177 274.32
      vertex 7.9675 25.6177 266.32
    endloop
  endfacet
  facet normal -0.891007 -0.45399 0
    outer loop
      vertex 7.9675 25.6177 274.32
      vertex 8.40072 24.7675 266.32
      vertex 8.40072 24.7675 274.32
    endloop
  endfacet
  facet normal -0.45399 -0.891007 0
    outer loop
      vertex 6.4425 26.7257 245.97
      vertex 7.29274 26.2925 261.02
      vertex 6.4425 26.7257 261.02
    endloop
  endfacet
  facet normal -0.45399 -0.891007 -0
    outer loop
      vertex 7.29274 26.2925 261.02
      vertex 6.4425 26.7257 245.97
      vertex 7.29274 26.2925 245.97
    endloop
  endfacet
  facet normal -0.45399 -0.891007 0
    outer loop
      vertex 6.4425 26.7257 266.32
      vertex 7.29274 26.2925 274.32
      vertex 6.4425 26.7257 274.32
    endloop
  endfacet
  facet normal -0.45399 -0.891007 -0
    outer loop
      vertex 7.29274 26.2925 274.32
      vertex 6.4425 26.7257 266.32
      vertex 7.29274 26.2925 266.32
    endloop
  endfacet
  facet normal 0.45399 -0.891007 0
    outer loop
      vertex 3.70726 26.2925 266.32
      vertex 4.5575 26.7257 274.32
      vertex 3.70726 26.2925 274.32
    endloop
  endfacet
  facet normal 0.45399 -0.891007 0
    outer loop
      vertex 4.5575 26.7257 274.32
      vertex 3.70726 26.2925 266.32
      vertex 4.5575 26.7257 266.32
    endloop
  endfacet
  facet normal 0.45399 -0.891007 0
    outer loop
      vertex 3.70726 26.2925 245.97
      vertex 4.5575 26.7257 261.02
      vertex 3.70726 26.2925 261.02
    endloop
  endfacet
  facet normal 0.45399 -0.891007 0
    outer loop
      vertex 4.5575 26.7257 261.02
      vertex 3.70726 26.2925 245.97
      vertex 4.5575 26.7257 245.97
    endloop
  endfacet
  facet normal 0.707107 -0.707107 0
    outer loop
      vertex 3.0325 25.6177 274.32
      vertex 3.70726 26.2925 266.32
      vertex 3.70726 26.2925 274.32
    endloop
  endfacet
  facet normal 0.707107 -0.707107 0
    outer loop
      vertex 3.70726 26.2925 266.32
      vertex 3.0325 25.6177 274.32
      vertex 3.0325 25.6177 266.32
    endloop
  endfacet
  facet normal 0.707107 -0.707107 0
    outer loop
      vertex 3.0325 25.6177 261.02
      vertex 3.70726 26.2925 245.97
      vertex 3.70726 26.2925 261.02
    endloop
  endfacet
  facet normal 0.707107 -0.707107 0
    outer loop
      vertex 3.70726 26.2925 245.97
      vertex 3.0325 25.6177 261.02
      vertex 3.0325 25.6177 245.97
    endloop
  endfacet
  facet normal 0.156436 -0.987688 0
    outer loop
      vertex 4.5575 26.7257 245.97
      vertex 5.5 26.875 261.02
      vertex 4.5575 26.7257 261.02
    endloop
  endfacet
  facet normal 0.156436 -0.987688 0
    outer loop
      vertex 5.5 26.875 261.02
      vertex 4.5575 26.7257 245.97
      vertex 5.5 26.875 245.97
    endloop
  endfacet
  facet normal 0.156436 -0.987688 0
    outer loop
      vertex 4.5575 26.7257 266.32
      vertex 5.5 26.875 274.32
      vertex 4.5575 26.7257 274.32
    endloop
  endfacet
  facet normal 0.156436 -0.987688 0
    outer loop
      vertex 5.5 26.875 274.32
      vertex 4.5575 26.7257 266.32
      vertex 5.5 26.875 266.32
    endloop
  endfacet
  facet normal -0.891007 0.453989 0
    outer loop
      vertex 7.9675 22.0323 245.97
      vertex 8.40072 22.8825 261.02
      vertex 8.40072 22.8825 245.97
    endloop
  endfacet
  facet normal -0.891007 0.453989 0
    outer loop
      vertex 8.40072 22.8825 261.02
      vertex 7.9675 22.0323 245.97
      vertex 7.9675 22.0323 261.02
    endloop
  endfacet
  facet normal -0.891007 0.453989 0
    outer loop
      vertex 7.9675 22.0323 266.32
      vertex 8.40072 22.8825 274.32
      vertex 8.40072 22.8825 266.32
    endloop
  endfacet
  facet normal -0.891007 0.453989 0
    outer loop
      vertex 8.40072 22.8825 274.32
      vertex 7.9675 22.0323 266.32
      vertex 7.9675 22.0323 274.32
    endloop
  endfacet
  facet normal 0.707107 0.707107 0
    outer loop
      vertex 3.70726 21.3575 261.02
      vertex 3.0325 22.0323 245.97
      vertex 3.0325 22.0323 261.02
    endloop
  endfacet
  facet normal 0.707107 0.707107 0
    outer loop
      vertex 3.0325 22.0323 245.97
      vertex 3.70726 21.3575 261.02
      vertex 3.70726 21.3575 245.97
    endloop
  endfacet
  facet normal 0.707107 0.707107 0
    outer loop
      vertex 3.70726 21.3575 274.32
      vertex 3.0325 22.0323 266.32
      vertex 3.0325 22.0323 274.32
    endloop
  endfacet
  facet normal 0.707107 0.707107 0
    outer loop
      vertex 3.0325 22.0323 266.32
      vertex 3.70726 21.3575 274.32
      vertex 3.70726 21.3575 266.32
    endloop
  endfacet
  facet normal 0.987688 0.156435 0
    outer loop
      vertex 2.59928 22.8825 261.02
      vertex 2.45 23.825 245.97
      vertex 2.45 23.825 261.02
    endloop
  endfacet
  facet normal 0.987688 0.156435 0
    outer loop
      vertex 2.45 23.825 245.97
      vertex 2.59928 22.8825 261.02
      vertex 2.59928 22.8825 245.97
    endloop
  endfacet
  facet normal 0.987688 0.156435 0
    outer loop
      vertex 2.59928 22.8825 274.32
      vertex 2.45 23.825 266.32
      vertex 2.45 23.825 274.32
    endloop
  endfacet
  facet normal 0.987688 0.156435 0
    outer loop
      vertex 2.45 23.825 266.32
      vertex 2.59928 22.8825 274.32
      vertex 2.59928 22.8825 266.32
    endloop
  endfacet
  facet normal 0.891007 -0.45399 0
    outer loop
      vertex 2.59928 24.7675 261.02
      vertex 3.0325 25.6177 245.97
      vertex 3.0325 25.6177 261.02
    endloop
  endfacet
  facet normal 0.891007 -0.45399 0
    outer loop
      vertex 3.0325 25.6177 245.97
      vertex 2.59928 24.7675 261.02
      vertex 2.59928 24.7675 245.97
    endloop
  endfacet
  facet normal 0.891007 -0.45399 0
    outer loop
      vertex 2.59928 24.7675 274.32
      vertex 3.0325 25.6177 266.32
      vertex 3.0325 25.6177 274.32
    endloop
  endfacet
  facet normal 0.891007 -0.45399 0
    outer loop
      vertex 3.0325 25.6177 266.32
      vertex 2.59928 24.7675 274.32
      vertex 2.59928 24.7675 266.32
    endloop
  endfacet
  facet normal -0.156434 0.987688 0
    outer loop
      vertex 6.4425 20.9243 266.32
      vertex 5.5 20.775 274.32
      vertex 6.4425 20.9243 274.32
    endloop
  endfacet
  facet normal -0.156434 0.987688 0
    outer loop
      vertex 5.5 20.775 274.32
      vertex 6.4425 20.9243 266.32
      vertex 5.5 20.775 266.32
    endloop
  endfacet
  facet normal -0.156434 0.987688 0
    outer loop
      vertex 6.4425 20.9243 245.97
      vertex 5.5 20.775 261.02
      vertex 6.4425 20.9243 261.02
    endloop
  endfacet
  facet normal -0.156434 0.987688 0
    outer loop
      vertex 5.5 20.775 261.02
      vertex 6.4425 20.9243 245.97
      vertex 5.5 20.775 245.97
    endloop
  endfacet
  facet normal -0.707107 0.707107 0
    outer loop
      vertex 7.29274 21.3575 245.97
      vertex 7.9675 22.0323 261.02
      vertex 7.9675 22.0323 245.97
    endloop
  endfacet
  facet normal -0.707107 0.707107 0
    outer loop
      vertex 7.9675 22.0323 261.02
      vertex 7.29274 21.3575 245.97
      vertex 7.29274 21.3575 261.02
    endloop
  endfacet
  facet normal -0.707107 0.707107 0
    outer loop
      vertex 7.29274 21.3575 266.32
      vertex 7.9675 22.0323 274.32
      vertex 7.9675 22.0323 266.32
    endloop
  endfacet
  facet normal -0.707107 0.707107 0
    outer loop
      vertex 7.9675 22.0323 274.32
      vertex 7.29274 21.3575 266.32
      vertex 7.29274 21.3575 274.32
    endloop
  endfacet
  facet normal 0.45399 0.891007 -0
    outer loop
      vertex 4.5575 20.9243 245.97
      vertex 3.70726 21.3575 261.02
      vertex 4.5575 20.9243 261.02
    endloop
  endfacet
  facet normal 0.45399 0.891007 0
    outer loop
      vertex 3.70726 21.3575 261.02
      vertex 4.5575 20.9243 245.97
      vertex 3.70726 21.3575 245.97
    endloop
  endfacet
  facet normal 0.45399 0.891007 -0
    outer loop
      vertex 4.5575 20.9243 266.32
      vertex 3.70726 21.3575 274.32
      vertex 4.5575 20.9243 274.32
    endloop
  endfacet
  facet normal 0.45399 0.891007 0
    outer loop
      vertex 3.70726 21.3575 274.32
      vertex 4.5575 20.9243 266.32
      vertex 3.70726 21.3575 266.32
    endloop
  endfacet
  facet normal 0.891007 0.453989 0
    outer loop
      vertex 3.0325 22.0323 261.02
      vertex 2.59928 22.8825 245.97
      vertex 2.59928 22.8825 261.02
    endloop
  endfacet
  facet normal 0.891007 0.453989 0
    outer loop
      vertex 2.59928 22.8825 245.97
      vertex 3.0325 22.0323 261.02
      vertex 3.0325 22.0323 245.97
    endloop
  endfacet
  facet normal 0.891007 0.453989 0
    outer loop
      vertex 3.0325 22.0323 274.32
      vertex 2.59928 22.8825 266.32
      vertex 2.59928 22.8825 274.32
    endloop
  endfacet
  facet normal 0.891007 0.453989 0
    outer loop
      vertex 2.59928 22.8825 266.32
      vertex 3.0325 22.0323 274.32
      vertex 3.0325 22.0323 266.32
    endloop
  endfacet
  facet normal -0.987688 0.156435 0
    outer loop
      vertex 8.40072 22.8825 266.32
      vertex 8.55 23.825 274.32
      vertex 8.55 23.825 266.32
    endloop
  endfacet
  facet normal -0.987688 0.156435 0
    outer loop
      vertex 8.55 23.825 274.32
      vertex 8.40072 22.8825 266.32
      vertex 8.40072 22.8825 274.32
    endloop
  endfacet
  facet normal -0.987688 0.156435 0
    outer loop
      vertex 8.40072 22.8825 245.97
      vertex 8.55 23.825 261.02
      vertex 8.55 23.825 245.97
    endloop
  endfacet
  facet normal -0.987688 0.156435 0
    outer loop
      vertex 8.55 23.825 261.02
      vertex 8.40072 22.8825 245.97
      vertex 8.40072 22.8825 261.02
    endloop
  endfacet
  facet normal -0.45399 0.891007 0
    outer loop
      vertex 7.29274 21.3575 245.97
      vertex 6.4425 20.9243 261.02
      vertex 7.29274 21.3575 261.02
    endloop
  endfacet
  facet normal -0.45399 0.891007 0
    outer loop
      vertex 6.4425 20.9243 261.02
      vertex 7.29274 21.3575 245.97
      vertex 6.4425 20.9243 245.97
    endloop
  endfacet
  facet normal -0.45399 0.891007 0
    outer loop
      vertex 7.29274 21.3575 266.32
      vertex 6.4425 20.9243 274.32
      vertex 7.29274 21.3575 274.32
    endloop
  endfacet
  facet normal -0.45399 0.891007 0
    outer loop
      vertex 6.4425 20.9243 274.32
      vertex 7.29274 21.3575 266.32
      vertex 6.4425 20.9243 266.32
    endloop
  endfacet
  facet normal 0 0 1
    outer loop
      vertex 10.75 29.075 8
      vertex 8.55 23.825 8
      vertex 10.75 18.575 8
    endloop
  endfacet
  facet normal 0 0 1
    outer loop
      vertex 10.75 29.075 8
      vertex 8.40072 24.7675 8
      vertex 8.55 23.825 8
    endloop
  endfacet
  facet normal 0 0 1
    outer loop
      vertex 10.75 29.075 8
      vertex 7.9675 25.6177 8
      vertex 8.40072 24.7675 8
    endloop
  endfacet
  facet normal 0 0 1
    outer loop
      vertex 10.75 29.075 8
      vertex 7.29274 26.2925 8
      vertex 7.9675 25.6177 8
    endloop
  endfacet
  facet normal 0 0 1
    outer loop
      vertex 10.75 29.075 8
      vertex 6.4425 26.7257 8
      vertex 7.29274 26.2925 8
    endloop
  endfacet
  facet normal 0 0 1
    outer loop
      vertex 10.75 29.075 8
      vertex 5.5 26.875 8
      vertex 6.4425 26.7257 8
    endloop
  endfacet
  facet normal -0 0 1
    outer loop
      vertex 0 29.075 8
      vertex 5.5 26.875 8
      vertex 10.75 29.075 8
    endloop
  endfacet
  facet normal 0 0 1
    outer loop
      vertex 2.59928 24.7675 8
      vertex 0 29.075 8
      vertex 2.45 23.825 8
    endloop
  endfacet
  facet normal 0 0 1
    outer loop
      vertex 3.0325 25.6177 8
      vertex 0 29.075 8
      vertex 2.59928 24.7675 8
    endloop
  endfacet
  facet normal 0 0 1
    outer loop
      vertex 3.70726 26.2925 8
      vertex 0 29.075 8
      vertex 3.0325 25.6177 8
    endloop
  endfacet
  facet normal 0 0 1
    outer loop
      vertex 4.5575 26.7257 8
      vertex 0 29.075 8
      vertex 3.70726 26.2925 8
    endloop
  endfacet
  facet normal 0 0 1
    outer loop
      vertex 5.5 26.875 8
      vertex 0 29.075 8
      vertex 4.5575 26.7257 8
    endloop
  endfacet
  facet normal -0 0 1
    outer loop
      vertex 8.40072 22.8825 8
      vertex 10.75 18.575 8
      vertex 8.55 23.825 8
    endloop
  endfacet
  facet normal -0 0 1
    outer loop
      vertex 7.9675 22.0323 8
      vertex 10.75 18.575 8
      vertex 8.40072 22.8825 8
    endloop
  endfacet
  facet normal -0 0 1
    outer loop
      vertex 7.29274 21.3575 8
      vertex 10.75 18.575 8
      vertex 7.9675 22.0323 8
    endloop
  endfacet
  facet normal -0 0 1
    outer loop
      vertex 6.4425 20.9243 8
      vertex 10.75 18.575 8
      vertex 7.29274 21.3575 8
    endloop
  endfacet
  facet normal -0 0 1
    outer loop
      vertex 5.5 20.775 8
      vertex 10.75 18.575 8
      vertex 6.4425 20.9243 8
    endloop
  endfacet
  facet normal 0 0 1
    outer loop
      vertex 0 18.575 8
      vertex 5.5 20.775 8
      vertex 4.5575 20.9243 8
    endloop
  endfacet
  facet normal 0 0 1
    outer loop
      vertex 0 18.575 8
      vertex 2.45 23.825 8
      vertex 0 29.075 8
    endloop
  endfacet
  facet normal 0 0 1
    outer loop
      vertex 5.5 20.775 8
      vertex 0 18.575 8
      vertex 10.75 18.575 8
    endloop
  endfacet
  facet normal 0 0 1
    outer loop
      vertex 3.70726 21.3575 8
      vertex 0 18.575 8
      vertex 4.5575 20.9243 8
    endloop
  endfacet
  facet normal 0 0 1
    outer loop
      vertex 3.0325 22.0323 8
      vertex 0 18.575 8
      vertex 3.70726 21.3575 8
    endloop
  endfacet
  facet normal 0 0 1
    outer loop
      vertex 2.59928 22.8825 8
      vertex 0 18.575 8
      vertex 3.0325 22.0323 8
    endloop
  endfacet
  facet normal 0 0 1
    outer loop
      vertex 2.45 23.825 8
      vertex 0 18.575 8
      vertex 2.59928 22.8825 8
    endloop
  endfacet
  facet normal -1 0 0
    outer loop
      vertex 10.75 18.575 8
      vertex 10.75 29.075 13.3
      vertex 10.75 29.075 8
    endloop
  endfacet
  facet normal -1 -0 0
    outer loop
      vertex 10.75 29.075 13.3
      vertex 10.75 18.575 8
      vertex 10.75 18.575 13.3
    endloop
  endfacet
  facet normal 0 1 -0
    outer loop
      vertex 10.75 18.575 8
      vertex 0 18.575 13.3
      vertex 10.75 18.575 13.3
    endloop
  endfacet
  facet normal 0 1 0
    outer loop
      vertex 0 18.575 13.3
      vertex 10.75 18.575 8
      vertex 0 18.575 8
    endloop
  endfacet
  facet normal 0 0 -1
    outer loop
      vertex 10.75 18.575 13.3
      vertex 8.55 23.825 13.3
      vertex 10.75 29.075 13.3
    endloop
  endfacet
  facet normal 0 0 -1
    outer loop
      vertex 10.75 18.575 13.3
      vertex 8.40072 22.8825 13.3
      vertex 8.55 23.825 13.3
    endloop
  endfacet
  facet normal 0 0 -1
    outer loop
      vertex 10.75 18.575 13.3
      vertex 7.9675 22.0323 13.3
      vertex 8.40072 22.8825 13.3
    endloop
  endfacet
  facet normal 0 0 -1
    outer loop
      vertex 10.75 18.575 13.3
      vertex 7.29274 21.3575 13.3
      vertex 7.9675 22.0323 13.3
    endloop
  endfacet
  facet normal 0 0 -1
    outer loop
      vertex 10.75 18.575 13.3
      vertex 6.4425 20.9243 13.3
      vertex 7.29274 21.3575 13.3
    endloop
  endfacet
  facet normal 0 0 -1
    outer loop
      vertex 10.75 18.575 13.3
      vertex 5.5 20.775 13.3
      vertex 6.4425 20.9243 13.3
    endloop
  endfacet
  facet normal 0 0 -1
    outer loop
      vertex 0 18.575 13.3
      vertex 5.5 20.775 13.3
      vertex 10.75 18.575 13.3
    endloop
  endfacet
  facet normal -0 0 -1
    outer loop
      vertex 2.59928 22.8825 13.3
      vertex 0 18.575 13.3
      vertex 2.45 23.825 13.3
    endloop
  endfacet
  facet normal -0 0 -1
    outer loop
      vertex 3.0325 22.0323 13.3
      vertex 0 18.575 13.3
      vertex 2.59928 22.8825 13.3
    endloop
  endfacet
  facet normal -0 0 -1
    outer loop
      vertex 3.70726 21.3575 13.3
      vertex 0 18.575 13.3
      vertex 3.0325 22.0323 13.3
    endloop
  endfacet
  facet normal -0 0 -1
    outer loop
      vertex 4.5575 20.9243 13.3
      vertex 0 18.575 13.3
      vertex 3.70726 21.3575 13.3
    endloop
  endfacet
  facet normal -0 0 -1
    outer loop
      vertex 5.5 20.775 13.3
      vertex 0 18.575 13.3
      vertex 4.5575 20.9243 13.3
    endloop
  endfacet
  facet normal 0 0 -1
    outer loop
      vertex 8.40072 24.7675 13.3
      vertex 10.75 29.075 13.3
      vertex 8.55 23.825 13.3
    endloop
  endfacet
  facet normal 0 0 -1
    outer loop
      vertex 7.9675 25.6177 13.3
      vertex 10.75 29.075 13.3
      vertex 8.40072 24.7675 13.3
    endloop
  endfacet
  facet normal 0 0 -1
    outer loop
      vertex 7.29274 26.2925 13.3
      vertex 10.75 29.075 13.3
      vertex 7.9675 25.6177 13.3
    endloop
  endfacet
  facet normal 0 0 -1
    outer loop
      vertex 6.4425 26.7257 13.3
      vertex 10.75 29.075 13.3
      vertex 7.29274 26.2925 13.3
    endloop
  endfacet
  facet normal 0 0 -1
    outer loop
      vertex 5.5 26.875 13.3
      vertex 10.75 29.075 13.3
      vertex 6.4425 26.7257 13.3
    endloop
  endfacet
  facet normal 0 0 -1
    outer loop
      vertex 0 29.075 13.3
      vertex 5.5 26.875 13.3
      vertex 4.5575 26.7257 13.3
    endloop
  endfacet
  facet normal 0 0 -1
    outer loop
      vertex 0 29.075 13.3
      vertex 2.45 23.825 13.3
      vertex 0 18.575 13.3
    endloop
  endfacet
  facet normal 0 0 -1
    outer loop
      vertex 5.5 26.875 13.3
      vertex 0 29.075 13.3
      vertex 10.75 29.075 13.3
    endloop
  endfacet
  facet normal 0 0 -1
    outer loop
      vertex 3.70726 26.2925 13.3
      vertex 0 29.075 13.3
      vertex 4.5575 26.7257 13.3
    endloop
  endfacet
  facet normal 0 0 -1
    outer loop
      vertex 3.0325 25.6177 13.3
      vertex 0 29.075 13.3
      vertex 3.70726 26.2925 13.3
    endloop
  endfacet
  facet normal 0 0 -1
    outer loop
      vertex 2.59928 24.7675 13.3
      vertex 0 29.075 13.3
      vertex 3.0325 25.6177 13.3
    endloop
  endfacet
  facet normal 0 0 -1
    outer loop
      vertex 2.45 23.825 13.3
      vertex 0 29.075 13.3
      vertex 2.59928 24.7675 13.3
    endloop
  endfacet
  facet normal 0 -1 0
    outer loop
      vertex 0 29.075 8
      vertex 10.75 29.075 13.3
      vertex 0 29.075 13.3
    endloop
  endfacet
  facet normal 0 -1 -0
    outer loop
      vertex 10.75 29.075 13.3
      vertex 0 29.075 8
      vertex 10.75 29.075 8
    endloop
  endfacet
  facet normal -0.987688 0.156435 0
    outer loop
      vertex 8.40072 22.8825 13.3
      vertex 8.55 23.825 28.35
      vertex 8.55 23.825 13.3
    endloop
  endfacet
  facet normal -0.987688 0.156435 0
    outer loop
      vertex 8.55 23.825 28.35
      vertex 8.40072 22.8825 13.3
      vertex 8.40072 22.8825 28.35
    endloop
  endfacet
  facet normal -0.987688 0.156435 0
    outer loop
      vertex 8.40072 22.8825 0
      vertex 8.55 23.825 8
      vertex 8.55 23.825 0
    endloop
  endfacet
  facet normal -0.987688 0.156435 0
    outer loop
      vertex 8.55 23.825 8
      vertex 8.40072 22.8825 0
      vertex 8.40072 22.8825 8
    endloop
  endfacet
  facet normal 0.987688 0.156435 0
    outer loop
      vertex 2.59928 22.8825 28.35
      vertex 2.45 23.825 13.3
      vertex 2.45 23.825 28.35
    endloop
  endfacet
  facet normal 0.987688 0.156435 0
    outer loop
      vertex 2.45 23.825 13.3
      vertex 2.59928 22.8825 28.35
      vertex 2.59928 22.8825 13.3
    endloop
  endfacet
  facet normal 0.987688 0.156435 0
    outer loop
      vertex 2.59928 22.8825 8
      vertex 2.45 23.825 0
      vertex 2.45 23.825 8
    endloop
  endfacet
  facet normal 0.987688 0.156435 0
    outer loop
      vertex 2.45 23.825 0
      vertex 2.59928 22.8825 8
      vertex 2.59928 22.8825 0
    endloop
  endfacet
  facet normal -0.156434 0.987688 0
    outer loop
      vertex 6.4425 20.9243 13.3
      vertex 5.5 20.775 28.35
      vertex 6.4425 20.9243 28.35
    endloop
  endfacet
  facet normal -0.156434 0.987688 0
    outer loop
      vertex 5.5 20.775 28.35
      vertex 6.4425 20.9243 13.3
      vertex 5.5 20.775 13.3
    endloop
  endfacet
  facet normal -0.156434 0.987688 0
    outer loop
      vertex 6.4425 20.9243 0
      vertex 5.5 20.775 8
      vertex 6.4425 20.9243 8
    endloop
  endfacet
  facet normal -0.156434 0.987688 0
    outer loop
      vertex 5.5 20.775 8
      vertex 6.4425 20.9243 0
      vertex 5.5 20.775 0
    endloop
  endfacet
  facet normal 0.156436 -0.987688 0
    outer loop
      vertex 4.5575 26.7257 0
      vertex 5.5 26.875 8
      vertex 4.5575 26.7257 8
    endloop
  endfacet
  facet normal 0.156436 -0.987688 0
    outer loop
      vertex 5.5 26.875 8
      vertex 4.5575 26.7257 0
      vertex 5.5 26.875 0
    endloop
  endfacet
  facet normal 0.156436 -0.987688 0
    outer loop
      vertex 4.5575 26.7257 13.3
      vertex 5.5 26.875 28.35
      vertex 4.5575 26.7257 28.35
    endloop
  endfacet
  facet normal 0.156436 -0.987688 0
    outer loop
      vertex 5.5 26.875 28.35
      vertex 4.5575 26.7257 13.3
      vertex 5.5 26.875 13.3
    endloop
  endfacet
  facet normal 0 0 -1
    outer loop
      vertex 8.40072 22.8825 28.35
      vertex 8.40072 24.7675 28.35
      vertex 8.55 23.825 28.35
    endloop
  endfacet
  facet normal 0 0 -1
    outer loop
      vertex 7.9675 22.0323 28.35
      vertex 8.40072 24.7675 28.35
      vertex 8.40072 22.8825 28.35
    endloop
  endfacet
  facet normal 0 0 -1
    outer loop
      vertex 7.9675 22.0323 28.35
      vertex 7.9675 25.6177 28.35
      vertex 8.40072 24.7675 28.35
    endloop
  endfacet
  facet normal 0 0 -1
    outer loop
      vertex 7.29274 21.3575 28.35
      vertex 7.9675 25.6177 28.35
      vertex 7.9675 22.0323 28.35
    endloop
  endfacet
  facet normal 0 0 -1
    outer loop
      vertex 7.29274 21.3575 28.35
      vertex 7.29274 26.2925 28.35
      vertex 7.9675 25.6177 28.35
    endloop
  endfacet
  facet normal 0 0 -1
    outer loop
      vertex 6.4425 20.9243 28.35
      vertex 7.29274 26.2925 28.35
      vertex 7.29274 21.3575 28.35
    endloop
  endfacet
  facet normal 0 0 -1
    outer loop
      vertex 6.4425 20.9243 28.35
      vertex 6.4425 26.7257 28.35
      vertex 7.29274 26.2925 28.35
    endloop
  endfacet
  facet normal 0 0 -1
    outer loop
      vertex 5.5 20.775 28.35
      vertex 6.4425 26.7257 28.35
      vertex 6.4425 20.9243 28.35
    endloop
  endfacet
  facet normal 0 0 -1
    outer loop
      vertex 5.5 20.775 28.35
      vertex 5.5 26.875 28.35
      vertex 6.4425 26.7257 28.35
    endloop
  endfacet
  facet normal 0 0 -1
    outer loop
      vertex 4.5575 20.9243 28.35
      vertex 5.5 26.875 28.35
      vertex 5.5 20.775 28.35
    endloop
  endfacet
  facet normal 0 0 -1
    outer loop
      vertex 4.5575 20.9243 28.35
      vertex 4.5575 26.7257 28.35
      vertex 5.5 26.875 28.35
    endloop
  endfacet
  facet normal 0 0 -1
    outer loop
      vertex 3.70726 21.3575 28.35
      vertex 4.5575 26.7257 28.35
      vertex 4.5575 20.9243 28.35
    endloop
  endfacet
  facet normal 0 0 -1
    outer loop
      vertex 3.70726 21.3575 28.35
      vertex 3.70726 26.2925 28.35
      vertex 4.5575 26.7257 28.35
    endloop
  endfacet
  facet normal 0 0 -1
    outer loop
      vertex 3.0325 22.0323 28.35
      vertex 3.70726 26.2925 28.35
      vertex 3.70726 21.3575 28.35
    endloop
  endfacet
  facet normal 0 0 -1
    outer loop
      vertex 3.0325 22.0323 28.35
      vertex 3.0325 25.6177 28.35
      vertex 3.70726 26.2925 28.35
    endloop
  endfacet
  facet normal 0 0 -1
    outer loop
      vertex 2.59928 22.8825 28.35
      vertex 3.0325 25.6177 28.35
      vertex 3.0325 22.0323 28.35
    endloop
  endfacet
  facet normal 0 0 -1
    outer loop
      vertex 2.59928 22.8825 28.35
      vertex 2.59928 24.7675 28.35
      vertex 3.0325 25.6177 28.35
    endloop
  endfacet
  facet normal 0 -0 -1
    outer loop
      vertex 2.59928 24.7675 28.35
      vertex 2.59928 22.8825 28.35
      vertex 2.45 23.825 28.35
    endloop
  endfacet
  facet normal -0.707107 0.707107 0
    outer loop
      vertex 7.29274 21.3575 13.3
      vertex 7.9675 22.0323 28.35
      vertex 7.9675 22.0323 13.3
    endloop
  endfacet
  facet normal -0.707107 0.707107 0
    outer loop
      vertex 7.9675 22.0323 28.35
      vertex 7.29274 21.3575 13.3
      vertex 7.29274 21.3575 28.35
    endloop
  endfacet
  facet normal -0.707107 0.707107 0
    outer loop
      vertex 7.29274 21.3575 0
      vertex 7.9675 22.0323 8
      vertex 7.9675 22.0323 0
    endloop
  endfacet
  facet normal -0.707107 0.707107 0
    outer loop
      vertex 7.9675 22.0323 8
      vertex 7.29274 21.3575 0
      vertex 7.29274 21.3575 8
    endloop
  endfacet
  facet normal -0.891007 0.453989 0
    outer loop
      vertex 7.9675 22.0323 13.3
      vertex 8.40072 22.8825 28.35
      vertex 8.40072 22.8825 13.3
    endloop
  endfacet
  facet normal -0.891007 0.453989 0
    outer loop
      vertex 8.40072 22.8825 28.35
      vertex 7.9675 22.0323 13.3
      vertex 7.9675 22.0323 28.35
    endloop
  endfacet
  facet normal -0.891007 0.453989 0
    outer loop
      vertex 7.9675 22.0323 0
      vertex 8.40072 22.8825 8
      vertex 8.40072 22.8825 0
    endloop
  endfacet
  facet normal -0.891007 0.453989 0
    outer loop
      vertex 8.40072 22.8825 8
      vertex 7.9675 22.0323 0
      vertex 7.9675 22.0323 8
    endloop
  endfacet
  facet normal -0.45399 0.891007 0
    outer loop
      vertex 7.29274 21.3575 13.3
      vertex 6.4425 20.9243 28.35
      vertex 7.29274 21.3575 28.35
    endloop
  endfacet
  facet normal -0.45399 0.891007 0
    outer loop
      vertex 6.4425 20.9243 28.35
      vertex 7.29274 21.3575 13.3
      vertex 6.4425 20.9243 13.3
    endloop
  endfacet
  facet normal -0.45399 0.891007 0
    outer loop
      vertex 7.29274 21.3575 0
      vertex 6.4425 20.9243 8
      vertex 7.29274 21.3575 8
    endloop
  endfacet
  facet normal -0.45399 0.891007 0
    outer loop
      vertex 6.4425 20.9243 8
      vertex 7.29274 21.3575 0
      vertex 6.4425 20.9243 0
    endloop
  endfacet
  facet normal 0.45399 0.891007 -0
    outer loop
      vertex 4.5575 20.9243 0
      vertex 3.70726 21.3575 8
      vertex 4.5575 20.9243 8
    endloop
  endfacet
  facet normal 0.45399 0.891007 0
    outer loop
      vertex 3.70726 21.3575 8
      vertex 4.5575 20.9243 0
      vertex 3.70726 21.3575 0
    endloop
  endfacet
  facet normal 0.45399 0.891007 -0
    outer loop
      vertex 4.5575 20.9243 13.3
      vertex 3.70726 21.3575 28.35
      vertex 4.5575 20.9243 28.35
    endloop
  endfacet
  facet normal 0.45399 0.891007 0
    outer loop
      vertex 3.70726 21.3575 28.35
      vertex 4.5575 20.9243 13.3
      vertex 3.70726 21.3575 13.3
    endloop
  endfacet
  facet normal 0.707107 0.707107 0
    outer loop
      vertex 3.70726 21.3575 8
      vertex 3.0325 22.0323 0
      vertex 3.0325 22.0323 8
    endloop
  endfacet
  facet normal 0.707107 0.707107 0
    outer loop
      vertex 3.0325 22.0323 0
      vertex 3.70726 21.3575 8
      vertex 3.70726 21.3575 0
    endloop
  endfacet
  facet normal 0.707107 0.707107 0
    outer loop
      vertex 3.70726 21.3575 28.35
      vertex 3.0325 22.0323 13.3
      vertex 3.0325 22.0323 28.35
    endloop
  endfacet
  facet normal 0.707107 0.707107 0
    outer loop
      vertex 3.0325 22.0323 13.3
      vertex 3.70726 21.3575 28.35
      vertex 3.70726 21.3575 13.3
    endloop
  endfacet
  facet normal 0.156434 0.987688 -0
    outer loop
      vertex 5.5 20.775 13.3
      vertex 4.5575 20.9243 28.35
      vertex 5.5 20.775 28.35
    endloop
  endfacet
  facet normal 0.156434 0.987688 0
    outer loop
      vertex 4.5575 20.9243 28.35
      vertex 5.5 20.775 13.3
      vertex 4.5575 20.9243 13.3
    endloop
  endfacet
  facet normal 0.156434 0.987688 -0
    outer loop
      vertex 5.5 20.775 0
      vertex 4.5575 20.9243 8
      vertex 5.5 20.775 8
    endloop
  endfacet
  facet normal 0.156434 0.987688 0
    outer loop
      vertex 4.5575 20.9243 8
      vertex 5.5 20.775 0
      vertex 4.5575 20.9243 0
    endloop
  endfacet
  facet normal -0.891007 -0.45399 0
    outer loop
      vertex 8.40072 24.7675 13.3
      vertex 7.9675 25.6177 28.35
      vertex 7.9675 25.6177 13.3
    endloop
  endfacet
  facet normal -0.891007 -0.45399 0
    outer loop
      vertex 7.9675 25.6177 28.35
      vertex 8.40072 24.7675 13.3
      vertex 8.40072 24.7675 28.35
    endloop
  endfacet
  facet normal -0.891007 -0.45399 0
    outer loop
      vertex 8.40072 24.7675 0
      vertex 7.9675 25.6177 8
      vertex 7.9675 25.6177 0
    endloop
  endfacet
  facet normal -0.891007 -0.45399 0
    outer loop
      vertex 7.9675 25.6177 8
      vertex 8.40072 24.7675 0
      vertex 8.40072 24.7675 8
    endloop
  endfacet
  facet normal 0.707107 -0.707107 0
    outer loop
      vertex 3.0325 25.6177 28.35
      vertex 3.70726 26.2925 13.3
      vertex 3.70726 26.2925 28.35
    endloop
  endfacet
  facet normal 0.707107 -0.707107 0
    outer loop
      vertex 3.70726 26.2925 13.3
      vertex 3.0325 25.6177 28.35
      vertex 3.0325 25.6177 13.3
    endloop
  endfacet
  facet normal 0.707107 -0.707107 0
    outer loop
      vertex 3.0325 25.6177 8
      vertex 3.70726 26.2925 0
      vertex 3.70726 26.2925 8
    endloop
  endfacet
  facet normal 0.707107 -0.707107 0
    outer loop
      vertex 3.70726 26.2925 0
      vertex 3.0325 25.6177 8
      vertex 3.0325 25.6177 0
    endloop
  endfacet
  facet normal 0.987688 -0.156435 0
    outer loop
      vertex 2.45 23.825 28.35
      vertex 2.59928 24.7675 13.3
      vertex 2.59928 24.7675 28.35
    endloop
  endfacet
  facet normal 0.987688 -0.156435 0
    outer loop
      vertex 2.59928 24.7675 13.3
      vertex 2.45 23.825 28.35
      vertex 2.45 23.825 13.3
    endloop
  endfacet
  facet normal 0.987688 -0.156435 0
    outer loop
      vertex 2.45 23.825 8
      vertex 2.59928 24.7675 0
      vertex 2.59928 24.7675 8
    endloop
  endfacet
  facet normal 0.987688 -0.156435 0
    outer loop
      vertex 2.59928 24.7675 0
      vertex 2.45 23.825 8
      vertex 2.45 23.825 0
    endloop
  endfacet
  facet normal 0.891007 0.453989 0
    outer loop
      vertex 3.0325 22.0323 28.35
      vertex 2.59928 22.8825 13.3
      vertex 2.59928 22.8825 28.35
    endloop
  endfacet
  facet normal 0.891007 0.453989 0
    outer loop
      vertex 2.59928 22.8825 13.3
      vertex 3.0325 22.0323 28.35
      vertex 3.0325 22.0323 13.3
    endloop
  endfacet
  facet normal 0.891007 0.453989 0
    outer loop
      vertex 3.0325 22.0323 8
      vertex 2.59928 22.8825 0
      vertex 2.59928 22.8825 8
    endloop
  endfacet
  facet normal 0.891007 0.453989 0
    outer loop
      vertex 2.59928 22.8825 0
      vertex 3.0325 22.0323 8
      vertex 3.0325 22.0323 0
    endloop
  endfacet
  facet normal -0.156436 -0.987688 0
    outer loop
      vertex 5.5 26.875 0
      vertex 6.4425 26.7257 8
      vertex 5.5 26.875 8
    endloop
  endfacet
  facet normal -0.156436 -0.987688 -0
    outer loop
      vertex 6.4425 26.7257 8
      vertex 5.5 26.875 0
      vertex 6.4425 26.7257 0
    endloop
  endfacet
  facet normal -0.156436 -0.987688 0
    outer loop
      vertex 5.5 26.875 13.3
      vertex 6.4425 26.7257 28.35
      vertex 5.5 26.875 28.35
    endloop
  endfacet
  facet normal -0.156436 -0.987688 -0
    outer loop
      vertex 6.4425 26.7257 28.35
      vertex 5.5 26.875 13.3
      vertex 6.4425 26.7257 13.3
    endloop
  endfacet
  facet normal -0.707107 -0.707107 0
    outer loop
      vertex 7.9675 25.6177 13.3
      vertex 7.29274 26.2925 28.35
      vertex 7.29274 26.2925 13.3
    endloop
  endfacet
  facet normal -0.707107 -0.707107 0
    outer loop
      vertex 7.29274 26.2925 28.35
      vertex 7.9675 25.6177 13.3
      vertex 7.9675 25.6177 28.35
    endloop
  endfacet
  facet normal -0.707107 -0.707107 0
    outer loop
      vertex 7.9675 25.6177 0
      vertex 7.29274 26.2925 8
      vertex 7.29274 26.2925 0
    endloop
  endfacet
  facet normal -0.707107 -0.707107 0
    outer loop
      vertex 7.29274 26.2925 8
      vertex 7.9675 25.6177 0
      vertex 7.9675 25.6177 8
    endloop
  endfacet
  facet normal 0.45399 -0.891007 0
    outer loop
      vertex 3.70726 26.2925 13.3
      vertex 4.5575 26.7257 28.35
      vertex 3.70726 26.2925 28.35
    endloop
  endfacet
  facet normal 0.45399 -0.891007 0
    outer loop
      vertex 4.5575 26.7257 28.35
      vertex 3.70726 26.2925 13.3
      vertex 4.5575 26.7257 13.3
    endloop
  endfacet
  facet normal 0.45399 -0.891007 0
    outer loop
      vertex 3.70726 26.2925 0
      vertex 4.5575 26.7257 8
      vertex 3.70726 26.2925 8
    endloop
  endfacet
  facet normal 0.45399 -0.891007 0
    outer loop
      vertex 4.5575 26.7257 8
      vertex 3.70726 26.2925 0
      vertex 4.5575 26.7257 0
    endloop
  endfacet
  facet normal 0.891007 -0.45399 0
    outer loop
      vertex 2.59928 24.7675 28.35
      vertex 3.0325 25.6177 13.3
      vertex 3.0325 25.6177 28.35
    endloop
  endfacet
  facet normal 0.891007 -0.45399 0
    outer loop
      vertex 3.0325 25.6177 13.3
      vertex 2.59928 24.7675 28.35
      vertex 2.59928 24.7675 13.3
    endloop
  endfacet
  facet normal 0.891007 -0.45399 0
    outer loop
      vertex 2.59928 24.7675 8
      vertex 3.0325 25.6177 0
      vertex 3.0325 25.6177 8
    endloop
  endfacet
  facet normal 0.891007 -0.45399 0
    outer loop
      vertex 3.0325 25.6177 0
      vertex 2.59928 24.7675 8
      vertex 2.59928 24.7675 0
    endloop
  endfacet
  facet normal -0.987688 -0.156435 0
    outer loop
      vertex 8.55 23.825 0
      vertex 8.40072 24.7675 8
      vertex 8.40072 24.7675 0
    endloop
  endfacet
  facet normal -0.987688 -0.156435 0
    outer loop
      vertex 8.40072 24.7675 8
      vertex 8.55 23.825 0
      vertex 8.55 23.825 8
    endloop
  endfacet
  facet normal -0.987688 -0.156435 0
    outer loop
      vertex 8.55 23.825 13.3
      vertex 8.40072 24.7675 28.35
      vertex 8.40072 24.7675 13.3
    endloop
  endfacet
  facet normal -0.987688 -0.156435 0
    outer loop
      vertex 8.40072 24.7675 28.35
      vertex 8.55 23.825 13.3
      vertex 8.55 23.825 28.35
    endloop
  endfacet
  facet normal -0.45399 -0.891007 0
    outer loop
      vertex 6.4425 26.7257 13.3
      vertex 7.29274 26.2925 28.35
      vertex 6.4425 26.7257 28.35
    endloop
  endfacet
  facet normal -0.45399 -0.891007 -0
    outer loop
      vertex 7.29274 26.2925 28.35
      vertex 6.4425 26.7257 13.3
      vertex 7.29274 26.2925 13.3
    endloop
  endfacet
  facet normal -0.45399 -0.891007 0
    outer loop
      vertex 6.4425 26.7257 0
      vertex 7.29274 26.2925 8
      vertex 6.4425 26.7257 8
    endloop
  endfacet
  facet normal -0.45399 -0.891007 -0
    outer loop
      vertex 7.29274 26.2925 8
      vertex 6.4425 26.7257 0
      vertex 7.29274 26.2925 0
    endloop
  endfacet
  facet normal -1 0 0
    outer loop
      vertex 0 18.575 13.3
      vertex 0 29.075 261.02
      vertex 0 29.075 13.3
    endloop
  endfacet
  facet normal -1 -0 0
    outer loop
      vertex 0 29.075 261.02
      vertex 0 18.575 13.3
      vertex 0 18.575 261.02
    endloop
  endfacet
  facet normal -1 0 0
    outer loop
      vertex 0 29.075 13.3
      vertex 0 47.65 0
      vertex 0 29.075 8
    endloop
  endfacet
  facet normal -1 0 0
    outer loop
      vertex 0 47.65 0
      vertex 0 18.575 8
      vertex 0 29.075 8
    endloop
  endfacet
  facet normal -1 0 0
    outer loop
      vertex 0 0 0
      vertex 0 18.575 13.3
      vertex 0 18.575 8
    endloop
  endfacet
  facet normal -1 -0 0
    outer loop
      vertex 0 18.575 13.3
      vertex 0 0 0
      vertex 0 18.575 261.02
    endloop
  endfacet
  facet normal -1 0 0
    outer loop
      vertex 0 0 274.32
      vertex 0 18.575 261.02
      vertex 0 0 0
    endloop
  endfacet
  facet normal -1 0 0
    outer loop
      vertex 0 0 0
      vertex 0 18.575 8
      vertex 0 47.65 0
    endloop
  endfacet
  facet normal -1 0 0
    outer loop
      vertex 0 47.65 0
      vertex 0 29.075 13.3
      vertex 0 47.65 274.32
    endloop
  endfacet
  facet normal -1 0 0
    outer loop
      vertex 0 29.075 261.02
      vertex 0 47.65 274.32
      vertex 0 29.075 13.3
    endloop
  endfacet
  facet normal -1 0 0
    outer loop
      vertex 0 29.075 266.32
      vertex 0 47.65 274.32
      vertex 0 29.075 261.02
    endloop
  endfacet
  facet normal -1 0 0
    outer loop
      vertex 0 18.575 266.32
      vertex 0 47.65 274.32
      vertex 0 29.075 266.32
    endloop
  endfacet
  facet normal -1 0 0
    outer loop
      vertex 0 18.575 266.32
      vertex 0 0 274.32
      vertex 0 47.65 274.32
    endloop
  endfacet
  facet normal -1 0 0
    outer loop
      vertex 0 18.575 261.02
      vertex 0 0 274.32
      vertex 0 18.575 266.32
    endloop
  endfacet
  facet normal 0 0 1
    outer loop
      vertex 11 0 274.32
      vertex 7.9675 22.0323 274.32
      vertex 8.4 3.65 274.32
    endloop
  endfacet
  facet normal -0 0 1
    outer loop
      vertex 7.29274 21.3575 274.32
      vertex 8.4 3.65 274.32
      vertex 7.9675 22.0323 274.32
    endloop
  endfacet
  facet normal -0 0 1
    outer loop
      vertex 6.4425 20.9243 274.32
      vertex 8.4 3.65 274.32
      vertex 7.29274 21.3575 274.32
    endloop
  endfacet
  facet normal -0 0 1
    outer loop
      vertex 5.5 20.775 274.32
      vertex 8.4 3.65 274.32
      vertex 6.4425 20.9243 274.32
    endloop
  endfacet
  facet normal 0 0 1
    outer loop
      vertex 2.6 3.65 274.32
      vertex 5.5 20.775 274.32
      vertex 4.5575 20.9243 274.32
    endloop
  endfacet
  facet normal 0 0 1
    outer loop
      vertex 2.6 3.65 274.32
      vertex 4.5575 20.9243 274.32
      vertex 3.70726 21.3575 274.32
    endloop
  endfacet
  facet normal 0 0 1
    outer loop
      vertex 2.6 3.65 274.32
      vertex 3.70726 21.3575 274.32
      vertex 3.0325 22.0323 274.32
    endloop
  endfacet
  facet normal 0 0 1
    outer loop
      vertex 5.5 20.775 274.32
      vertex 2.6 3.65 274.32
      vertex 8.4 3.65 274.32
    endloop
  endfacet
  facet normal 0 0 1
    outer loop
      vertex 3.0325 22.0323 274.32
      vertex 0 0 274.32
      vertex 2.6 3.65 274.32
    endloop
  endfacet
  facet normal 0 0 1
    outer loop
      vertex 0 0 274.32
      vertex 3.0325 22.0323 274.32
      vertex 2.59928 22.8825 274.32
    endloop
  endfacet
  facet normal 0 0 1
    outer loop
      vertex 11 47.65 274.32
      vertex 8.55 23.825 274.32
      vertex 11 0 274.32
    endloop
  endfacet
  facet normal 0 0 1
    outer loop
      vertex 11 47.65 274.32
      vertex 8.40072 24.7675 274.32
      vertex 8.55 23.825 274.32
    endloop
  endfacet
  facet normal 0 0 1
    outer loop
      vertex 11 47.65 274.32
      vertex 7.9675 25.6177 274.32
      vertex 8.40072 24.7675 274.32
    endloop
  endfacet
  facet normal 0 0 1
    outer loop
      vertex 11 47.65 274.32
      vertex 7.29274 26.2925 274.32
      vertex 7.9675 25.6177 274.32
    endloop
  endfacet
  facet normal 0 0 1
    outer loop
      vertex 11 47.65 274.32
      vertex 6.4425 26.7257 274.32
      vertex 7.29274 26.2925 274.32
    endloop
  endfacet
  facet normal 0 0 1
    outer loop
      vertex 11 47.65 274.32
      vertex 5.5 26.875 274.32
      vertex 6.4425 26.7257 274.32
    endloop
  endfacet
  facet normal -0 0 1
    outer loop
      vertex 0 47.65 274.32
      vertex 5.5 26.875 274.32
      vertex 11 47.65 274.32
    endloop
  endfacet
  facet normal 0 0 1
    outer loop
      vertex 5.5 26.875 274.32
      vertex 0 47.65 274.32
      vertex 4.5575 26.7257 274.32
    endloop
  endfacet
  facet normal 0 0 1
    outer loop
      vertex 4.5575 26.7257 274.32
      vertex 0 47.65 274.32
      vertex 3.70726 26.2925 274.32
    endloop
  endfacet
  facet normal 0 0 1
    outer loop
      vertex 3.70726 26.2925 274.32
      vertex 0 47.65 274.32
      vertex 3.0325 25.6177 274.32
    endloop
  endfacet
  facet normal 0 0 1
    outer loop
      vertex 2.59928 24.7675 274.32
      vertex 0 47.65 274.32
      vertex 2.45 23.825 274.32
    endloop
  endfacet
  facet normal 0 0 1
    outer loop
      vertex 3.0325 25.6177 274.32
      vertex 0 47.65 274.32
      vertex 2.59928 24.7675 274.32
    endloop
  endfacet
  facet normal -0 0 1
    outer loop
      vertex 8.40072 22.8825 274.32
      vertex 11 0 274.32
      vertex 8.55 23.825 274.32
    endloop
  endfacet
  facet normal -0 0 1
    outer loop
      vertex 7.9675 22.0323 274.32
      vertex 11 0 274.32
      vertex 8.40072 22.8825 274.32
    endloop
  endfacet
  facet normal -0 0 1
    outer loop
      vertex 8.4 0.849999 274.32
      vertex 11 0 274.32
      vertex 8.4 3.65 274.32
    endloop
  endfacet
  facet normal 0 0 1
    outer loop
      vertex 7.2 0 274.32
      vertex 8.4 0.849999 274.32
      vertex 7.2 0.849999 274.32
    endloop
  endfacet
  facet normal 0 0 1
    outer loop
      vertex 8.4 0.849999 274.32
      vertex 7.2 0 274.32
      vertex 11 0 274.32
    endloop
  endfacet
  facet normal -0 0 1
    outer loop
      vertex 2.6 0.849999 274.32
      vertex 3.8 0 274.32
      vertex 3.8 0.849999 274.32
    endloop
  endfacet
  facet normal 0 0 1
    outer loop
      vertex 0 0 274.32
      vertex 2.59928 22.8825 274.32
      vertex 2.45 23.825 274.32
    endloop
  endfacet
  facet normal 0 0 1
    outer loop
      vertex 0 0 274.32
      vertex 2.45 23.825 274.32
      vertex 0 47.65 274.32
    endloop
  endfacet
  facet normal 0 0 1
    outer loop
      vertex 2.6 0.849999 274.32
      vertex 0 0 274.32
      vertex 3.8 0 274.32
    endloop
  endfacet
  facet normal 0 0 1
    outer loop
      vertex 2.6 3.65 274.32
      vertex 0 0 274.32
      vertex 2.6 0.849999 274.32
    endloop
  endfacet
  facet normal 1 -0 0
    outer loop
      vertex 11 0 274.32
      vertex 11 47.65 0
      vertex 11 47.65 274.32
    endloop
  endfacet
  facet normal 1 0 0
    outer loop
      vertex 11 47.65 0
      vertex 11 0 274.32
      vertex 11 0 0
    endloop
  endfacet
  facet normal 0 0 -1
    outer loop
      vertex 11 0 0
      vertex 8.55 23.825 0
      vertex 11 47.65 0
    endloop
  endfacet
  facet normal 0 0 -1
    outer loop
      vertex 11 0 0
      vertex 8.40072 22.8825 0
      vertex 8.55 23.825 0
    endloop
  endfacet
  facet normal 0 0 -1
    outer loop
      vertex 8.4 3.65 0
      vertex 11 0 0
      vertex 8.4 0.849999 0
    endloop
  endfacet
  facet normal 0 0 -1
    outer loop
      vertex 7.2 0 0
      vertex 8.4 0.849999 0
      vertex 11 0 0
    endloop
  endfacet
  facet normal -0 0 -1
    outer loop
      vertex 8.4 0.849999 0
      vertex 7.2 0 0
      vertex 7.2 0.849999 0
    endloop
  endfacet
  facet normal 0 0 -1
    outer loop
      vertex 8.40072 24.7675 0
      vertex 11 47.65 0
      vertex 8.55 23.825 0
    endloop
  endfacet
  facet normal 0 0 -1
    outer loop
      vertex 7.9675 25.6177 0
      vertex 11 47.65 0
      vertex 8.40072 24.7675 0
    endloop
  endfacet
  facet normal 0 0 -1
    outer loop
      vertex 7.29274 26.2925 0
      vertex 11 47.65 0
      vertex 7.9675 25.6177 0
    endloop
  endfacet
  facet normal 0 0 -1
    outer loop
      vertex 6.4425 26.7257 0
      vertex 11 47.65 0
      vertex 7.29274 26.2925 0
    endloop
  endfacet
  facet normal 0 0 -1
    outer loop
      vertex 5.5 26.875 0
      vertex 11 47.65 0
      vertex 6.4425 26.7257 0
    endloop
  endfacet
  facet normal 0 0 -1
    outer loop
      vertex 0 47.65 0
      vertex 5.5 26.875 0
      vertex 4.5575 26.7257 0
    endloop
  endfacet
  facet normal 0 0 -1
    outer loop
      vertex 0 47.65 0
      vertex 4.5575 26.7257 0
      vertex 3.70726 26.2925 0
    endloop
  endfacet
  facet normal 0 0 -1
    outer loop
      vertex 0 47.65 0
      vertex 3.70726 26.2925 0
      vertex 3.0325 25.6177 0
    endloop
  endfacet
  facet normal 0 0 -1
    outer loop
      vertex 0 47.65 0
      vertex 3.0325 25.6177 0
      vertex 2.59928 24.7675 0
    endloop
  endfacet
  facet normal 0 0 -1
    outer loop
      vertex 5.5 26.875 0
      vertex 0 47.65 0
      vertex 11 47.65 0
    endloop
  endfacet
  facet normal 0 0 -1
    outer loop
      vertex 2.45 23.825 0
      vertex 0 47.65 0
      vertex 2.59928 24.7675 0
    endloop
  endfacet
  facet normal 0 0 -1
    outer loop
      vertex 0 47.65 0
      vertex 2.45 23.825 0
      vertex 0 0 0
    endloop
  endfacet
  facet normal 0 0 -1
    outer loop
      vertex 7.9675 22.0323 0
      vertex 11 0 0
      vertex 8.4 3.65 0
    endloop
  endfacet
  facet normal 0 0 -1
    outer loop
      vertex 11 0 0
      vertex 7.9675 22.0323 0
      vertex 8.40072 22.8825 0
    endloop
  endfacet
  facet normal 0 0 -1
    outer loop
      vertex 8.4 3.65 0
      vertex 7.29274 21.3575 0
      vertex 7.9675 22.0323 0
    endloop
  endfacet
  facet normal 0 0 -1
    outer loop
      vertex 8.4 3.65 0
      vertex 6.4425 20.9243 0
      vertex 7.29274 21.3575 0
    endloop
  endfacet
  facet normal 0 0 -1
    outer loop
      vertex 8.4 3.65 0
      vertex 5.5 20.775 0
      vertex 6.4425 20.9243 0
    endloop
  endfacet
  facet normal 0 0 -1
    outer loop
      vertex 2.6 3.65 0
      vertex 5.5 20.775 0
      vertex 8.4 3.65 0
    endloop
  endfacet
  facet normal -0 0 -1
    outer loop
      vertex 5.5 20.775 0
      vertex 2.6 3.65 0
      vertex 4.5575 20.9243 0
    endloop
  endfacet
  facet normal -0 0 -1
    outer loop
      vertex 4.5575 20.9243 0
      vertex 2.6 3.65 0
      vertex 3.70726 21.3575 0
    endloop
  endfacet
  facet normal -0 0 -1
    outer loop
      vertex 3.70726 21.3575 0
      vertex 2.6 3.65 0
      vertex 3.0325 22.0323 0
    endloop
  endfacet
  facet normal 0 0 -1
    outer loop
      vertex 0 0 0
      vertex 3.0325 22.0323 0
      vertex 2.6 3.65 0
    endloop
  endfacet
  facet normal 0 0 -1
    outer loop
      vertex 3.8 0 0
      vertex 2.6 0.849999 0
      vertex 3.8 0.849999 0
    endloop
  endfacet
  facet normal 0 0 -1
    outer loop
      vertex 0 0 0
      vertex 2.6 3.65 0
      vertex 2.6 0.849999 0
    endloop
  endfacet
  facet normal -0 0 -1
    outer loop
      vertex 3.0325 22.0323 0
      vertex 0 0 0
      vertex 2.59928 22.8825 0
    endloop
  endfacet
  facet normal -0 0 -1
    outer loop
      vertex 2.59928 22.8825 0
      vertex 0 0 0
      vertex 2.45 23.825 0
    endloop
  endfacet
  facet normal 0 0 -1
    outer loop
      vertex 0 0 0
      vertex 2.6 0.849999 0
      vertex 3.8 0 0
    endloop
  endfacet
  facet normal 0 -1 0
    outer loop
      vertex 0 0 0
      vertex 3.8 0 274.32
      vertex 0 0 274.32
    endloop
  endfacet
  facet normal 0 -1 -0
    outer loop
      vertex 3.8 0 274.32
      vertex 0 0 0
      vertex 3.8 0 0
    endloop
  endfacet
  facet normal 0 -1 0
    outer loop
      vertex 7.2 0 0
      vertex 11 0 274.32
      vertex 7.2 0 274.32
    endloop
  endfacet
  facet normal 0 -1 -0
    outer loop
      vertex 11 0 274.32
      vertex 7.2 0 0
      vertex 11 0 0
    endloop
  endfacet
  facet normal 0 1 -0
    outer loop
      vertex 11 47.65 0
      vertex 0 47.65 274.32
      vertex 11 47.65 274.32
    endloop
  endfacet
  facet normal 0 1 0
    outer loop
      vertex 0 47.65 274.32
      vertex 11 47.65 0
      vertex 0 47.65 0
    endloop
  endfacet
endsolid OpenSCAD_Model
